# xmcd CD Database Entry
#
# Track frame offsets:
# 150
# 26035
# 47830
# 73502
# 100953
# 121523
# 145253
# 163047
# 185108
# 210933
# 242045
# 264318
# 285680
# 313691
# 337012
#
# Disc length: 4764 seconds
#
# Revision: 1
# Processed by: cddbd v1.4PL0 Copyright (c) Steve Scherf et al.
# Submitted via: tcd 2.0b
#
DISCID=dc129a0f
DTITLE=The Isley Brothers/The Best of The Isley Brothers
DYEAR=1900
DGENRE=
TTITLE0=Caravan of Love
TTITLE1=Down Low
TTITLE2=For The Love of You
TTITLE3=Spend The Night
TTITLE4=Let's Lay Together
TTITLE5=Insatiable Woman
TTITLE6=Harvest For The World
TTITLE7=Let's Make Love Tonight
TTITLE8=Between The Sheets
TTITLE9=Sensuality
TTITLE10=Groove With You
TTITLE11=Choosey Lover
TTITLE12=Summer Breeze
TTITLE13=Footsteps In The Dark
TTITLE14=Voyage To Atlantis
EXTD=
EXTT0=
EXTT1=
EXTT2=
EXTT3=
EXTT4=
EXTT5=
EXTT6=
EXTT7=
EXTT8=
EXTT9=
EXTT10=
EXTT11=
EXTT12=
EXTT13=
EXTT14=
PLAYORDER=
